<svg xmlns="http://www.w3.org/2000/svg" xmlns:xlink="http://www.w3.org/1999/xlink" width="190" zoomAndPan="magnify" viewBox="0 0 142.5 30.000001" height="40" preserveAspectRatio="xMidYMid meet" version="1.0"><defs><g/><clipPath id="f8c6dd5627"><path d="M 16.742188 2.902344 L 41.144531 2.902344 L 41.144531 26.128906 L 16.742188 26.128906 Z M 16.742188 2.902344 " clip-rule="nonzero"/></clipPath><clipPath id="7b1ef23b25"><path d="M 22.546875 2.902344 L 35.292969 2.902344 C 38.5 2.902344 41.097656 5.503906 41.097656 8.710938 L 41.097656 20.324219 C 41.097656 23.53125 38.5 26.128906 35.292969 26.128906 L 22.546875 26.128906 C 19.339844 26.128906 16.742188 23.53125 16.742188 20.324219 L 16.742188 8.710938 C 16.742188 5.503906 19.339844 2.902344 22.546875 2.902344 Z M 22.546875 2.902344 " clip-rule="nonzero"/></clipPath><clipPath id="f8957f38b1"><path d="M 0.742188 0.902344 L 25.144531 0.902344 L 25.144531 24.128906 L 0.742188 24.128906 Z M 0.742188 0.902344 " clip-rule="nonzero"/></clipPath><clipPath id="bd05019f26"><path d="M 6.546875 0.902344 L 19.292969 0.902344 C 22.5 0.902344 25.097656 3.503906 25.097656 6.710938 L 25.097656 18.324219 C 25.097656 21.53125 22.5 24.128906 19.292969 24.128906 L 6.546875 24.128906 C 3.339844 24.128906 0.742188 21.53125 0.742188 18.324219 L 0.742188 6.710938 C 0.742188 3.503906 3.339844 0.902344 6.546875 0.902344 Z M 6.546875 0.902344 " clip-rule="nonzero"/></clipPath><clipPath id="1a1974658d"><rect x="0" width="26" y="0" height="25"/></clipPath><clipPath id="a99f4f822c"><path d="M 16.742188 2.90625 L 41.089844 2.90625 L 41.089844 26.128906 L 16.742188 26.128906 Z M 16.742188 2.90625 " clip-rule="nonzero"/></clipPath><clipPath id="b211995af4"><path d="M 22.542969 2.90625 L 35.285156 2.90625 C 38.492188 2.90625 41.089844 5.507812 41.089844 8.710938 L 41.089844 20.320312 C 41.089844 23.527344 38.492188 26.125 35.285156 26.125 L 22.542969 26.125 C 19.339844 26.125 16.742188 23.527344 16.742188 20.320312 L 16.742188 8.710938 C 16.742188 5.507812 19.339844 2.90625 22.542969 2.90625 Z M 22.542969 2.90625 " clip-rule="nonzero"/></clipPath><clipPath id="2098b2193e"><path d="M 20 0 L 39 0 L 39 29.03125 L 20 29.03125 Z M 20 0 " clip-rule="nonzero"/></clipPath><clipPath id="caf24c59e0"><rect x="0" width="19" y="0" height="30"/></clipPath></defs><g clip-path="url(#f8c6dd5627)"><g clip-path="url(#7b1ef23b25)"><g transform="matrix(1, 0, 0, 1, 16, 2)"><g clip-path="url(#1a1974658d)"><g clip-path="url(#f8957f38b1)"><g clip-path="url(#bd05019f26)"><path fill="#ffffff" d="M 0.742188 0.902344 L 25.054688 0.902344 L 25.054688 24.128906 L 0.742188 24.128906 Z M 0.742188 0.902344 " fill-opacity="1" fill-rule="nonzero"/></g></g></g></g></g></g><g clip-path="url(#a99f4f822c)"><g clip-path="url(#b211995af4)"><path stroke-linecap="butt" transform="matrix(0.725806, 0, 0, 0.725806, 16.740442, 2.908106)" fill="none" stroke-linejoin="miter" d="M 7.994592 -0.00255776 L 25.550495 -0.00255776 C 29.969071 -0.00255776 33.548065 3.581817 33.548065 7.995012 L 33.548065 23.990151 C 33.548065 28.408727 29.969071 31.98772 25.550495 31.98772 L 7.994592 31.98772 C 3.581398 31.98772 0.00240454 28.408727 0.00240454 23.990151 L 0.00240454 7.995012 C 0.00240454 3.581817 3.581398 -0.00255776 7.994592 -0.00255776 Z M 7.994592 -0.00255776 " stroke="#4a51d1" stroke-width="1" stroke-opacity="1" stroke-miterlimit="4"/></g></g><g clip-path="url(#2098b2193e)"><g transform="matrix(1, 0, 0, 1, 20, 0.000000000000005692)"><g clip-path="url(#caf24c59e0)"><g fill="#4a51d1" fill-opacity="1"><g transform="translate(0.441803, 21.34644)"><g><path d="M 0.734375 -7.828125 C 0.734375 -9.359375 1.066406 -10.726562 1.734375 -11.9375 C 2.398438 -13.144531 3.328125 -14.085938 4.515625 -14.765625 C 5.710938 -15.441406 7.066406 -15.78125 8.578125 -15.78125 C 10.429688 -15.78125 12.015625 -15.289062 13.328125 -14.3125 C 14.648438 -13.332031 15.53125 -12 15.96875 -10.3125 L 11.796875 -10.3125 C 11.484375 -10.957031 11.039062 -11.453125 10.46875 -11.796875 C 9.90625 -12.140625 9.257812 -12.3125 8.53125 -12.3125 C 7.363281 -12.3125 6.414062 -11.898438 5.6875 -11.078125 C 4.957031 -10.265625 4.59375 -9.179688 4.59375 -7.828125 C 4.59375 -6.460938 4.957031 -5.367188 5.6875 -4.546875 C 6.414062 -3.734375 7.363281 -3.328125 8.53125 -3.328125 C 9.257812 -3.328125 9.90625 -3.5 10.46875 -3.84375 C 11.039062 -4.1875 11.484375 -4.679688 11.796875 -5.328125 L 15.96875 -5.328125 C 15.53125 -3.640625 14.648438 -2.3125 13.328125 -1.34375 C 12.015625 -0.375 10.429688 0.109375 8.578125 0.109375 C 7.066406 0.109375 5.710938 -0.222656 4.515625 -0.890625 C 3.328125 -1.566406 2.398438 -2.503906 1.734375 -3.703125 C 1.066406 -4.910156 0.734375 -6.285156 0.734375 -7.828125 Z M 0.734375 -7.828125 "/></g></g></g></g></g></g><g fill="#4a51d1" fill-opacity="1"><g transform="translate(41.110556, 20.566591)"><g><path d="M 4.5 -8.984375 C 4.882812 -9.578125 5.367188 -10.046875 5.953125 -10.390625 C 6.535156 -10.734375 7.179688 -10.90625 7.890625 -10.90625 L 7.890625 -7.40625 L 6.984375 -7.40625 C 6.148438 -7.40625 5.523438 -7.226562 5.109375 -6.875 C 4.703125 -6.519531 4.5 -5.894531 4.5 -5 L 4.5 0 L 1.203125 0 L 1.203125 -10.78125 L 4.5 -10.78125 Z M 4.5 -8.984375 "/></g></g></g><g fill="#4a51d1" fill-opacity="1"><g transform="translate(49.381456, 20.566591)"><g><path d="M 14.953125 -10.90625 C 16.296875 -10.90625 17.363281 -10.5 18.15625 -9.6875 C 18.945312 -8.875 19.34375 -7.742188 19.34375 -6.296875 L 19.34375 0 L 16.0625 0 L 16.0625 -5.859375 C 16.0625 -6.554688 15.875 -7.09375 15.5 -7.46875 C 15.132812 -7.851562 14.632812 -8.046875 14 -8.046875 C 13.351562 -8.046875 12.84375 -7.851562 12.46875 -7.46875 C 12.101562 -7.09375 11.921875 -6.554688 11.921875 -5.859375 L 11.921875 0 L 8.640625 0 L 8.640625 -5.859375 C 8.640625 -6.554688 8.453125 -7.09375 8.078125 -7.46875 C 7.710938 -7.851562 7.210938 -8.046875 6.578125 -8.046875 C 5.929688 -8.046875 5.421875 -7.851562 5.046875 -7.46875 C 4.679688 -7.09375 4.5 -6.554688 4.5 -5.859375 L 4.5 0 L 1.203125 0 L 1.203125 -10.78125 L 4.5 -10.78125 L 4.5 -9.4375 C 4.832031 -9.882812 5.269531 -10.238281 5.8125 -10.5 C 6.351562 -10.769531 6.96875 -10.90625 7.65625 -10.90625 C 8.46875 -10.90625 9.191406 -10.726562 9.828125 -10.375 C 10.460938 -10.03125 10.960938 -9.535156 11.328125 -8.890625 C 11.703125 -9.484375 12.207031 -9.96875 12.84375 -10.34375 C 13.488281 -10.71875 14.191406 -10.90625 14.953125 -10.90625 Z M 14.953125 -10.90625 "/></g></g></g><g fill="#4a51d1" fill-opacity="1"><g transform="translate(69.846139, 20.566591)"><g><path d="M 0.640625 -6.796875 C 0.640625 -8.140625 0.925781 -9.335938 1.5 -10.390625 C 2.082031 -11.441406 2.890625 -12.257812 3.921875 -12.84375 C 4.960938 -13.425781 6.140625 -13.71875 7.453125 -13.71875 C 9.066406 -13.71875 10.445312 -13.289062 11.59375 -12.4375 C 12.738281 -11.59375 13.503906 -10.4375 13.890625 -8.96875 L 10.265625 -8.96875 C 9.992188 -9.53125 9.609375 -9.957031 9.109375 -10.25 C 8.617188 -10.550781 8.054688 -10.703125 7.421875 -10.703125 C 6.398438 -10.703125 5.570312 -10.347656 4.9375 -9.640625 C 4.3125 -8.929688 4 -7.984375 4 -6.796875 C 4 -5.617188 4.3125 -4.675781 4.9375 -3.96875 C 5.570312 -3.257812 6.398438 -2.90625 7.421875 -2.90625 C 8.054688 -2.90625 8.617188 -3.050781 9.109375 -3.34375 C 9.609375 -3.632812 9.992188 -4.066406 10.265625 -4.640625 L 13.890625 -4.640625 C 13.503906 -3.171875 12.738281 -2.015625 11.59375 -1.171875 C 10.445312 -0.328125 9.066406 0.09375 7.453125 0.09375 C 6.140625 0.09375 4.960938 -0.195312 3.921875 -0.78125 C 2.890625 -1.363281 2.082031 -2.175781 1.5 -3.21875 C 0.925781 -4.269531 0.640625 -5.460938 0.640625 -6.796875 Z M 0.640625 -6.796875 "/></g></g></g><g fill="#4a51d1" fill-opacity="1"><g transform="translate(84.57144, 20.566591)"><g><path d="M 4.5 -14.296875 L 4.5 0 L 1.203125 0 L 1.203125 -14.296875 Z M 4.5 -14.296875 "/></g></g></g><g fill="#4a51d1" fill-opacity="1"><g transform="translate(90.272182, 20.566591)"><g><path d="M 6.109375 0.15625 C 5.046875 0.15625 4.09375 -0.0664062 3.25 -0.515625 C 2.40625 -0.972656 1.742188 -1.617188 1.265625 -2.453125 C 0.785156 -3.296875 0.546875 -4.273438 0.546875 -5.390625 C 0.546875 -6.503906 0.789062 -7.484375 1.28125 -8.328125 C 1.769531 -9.171875 2.4375 -9.816406 3.28125 -10.265625 C 4.132812 -10.710938 5.085938 -10.9375 6.140625 -10.9375 C 7.203125 -10.9375 8.15625 -10.710938 9 -10.265625 C 9.851562 -9.816406 10.523438 -9.171875 11.015625 -8.328125 C 11.503906 -7.484375 11.75 -6.503906 11.75 -5.390625 C 11.75 -4.285156 11.5 -3.3125 11 -2.46875 C 10.507812 -1.625 9.832031 -0.972656 8.96875 -0.515625 C 8.113281 -0.0664062 7.160156 0.15625 6.109375 0.15625 Z M 6.109375 -2.703125 C 6.742188 -2.703125 7.28125 -2.929688 7.71875 -3.390625 C 8.164062 -3.859375 8.390625 -4.523438 8.390625 -5.390625 C 8.390625 -6.253906 8.171875 -6.914062 7.734375 -7.375 C 7.304688 -7.84375 6.773438 -8.078125 6.140625 -8.078125 C 5.503906 -8.078125 4.972656 -7.847656 4.546875 -7.390625 C 4.117188 -6.929688 3.90625 -6.265625 3.90625 -5.390625 C 3.90625 -4.523438 4.113281 -3.859375 4.53125 -3.390625 C 4.945312 -2.929688 5.472656 -2.703125 6.109375 -2.703125 Z M 6.109375 -2.703125 "/></g></g></g><g fill="#4a51d1" fill-opacity="1"><g transform="translate(102.581908, 20.566591)"><g><path d="M 11.84375 -10.78125 L 11.84375 0 L 8.546875 0 L 8.546875 -1.46875 C 8.210938 -0.988281 7.753906 -0.601562 7.171875 -0.3125 C 6.597656 -0.03125 5.96875 0.109375 5.28125 0.109375 C 4.457031 0.109375 3.726562 -0.0703125 3.09375 -0.4375 C 2.457031 -0.800781 1.96875 -1.332031 1.625 -2.03125 C 1.28125 -2.726562 1.109375 -3.546875 1.109375 -4.484375 L 1.109375 -10.78125 L 4.390625 -10.78125 L 4.390625 -4.921875 C 4.390625 -4.203125 4.578125 -3.640625 4.953125 -3.234375 C 5.328125 -2.835938 5.828125 -2.640625 6.453125 -2.640625 C 7.097656 -2.640625 7.609375 -2.835938 7.984375 -3.234375 C 8.359375 -3.640625 8.546875 -4.203125 8.546875 -4.921875 L 8.546875 -10.78125 Z M 11.84375 -10.78125 "/></g></g></g><g fill="#4a51d1" fill-opacity="1"><g transform="translate(115.606643, 20.566591)"><g><path d="M 0.546875 -5.40625 C 0.546875 -6.519531 0.753906 -7.492188 1.171875 -8.328125 C 1.585938 -9.171875 2.15625 -9.816406 2.875 -10.265625 C 3.601562 -10.710938 4.410156 -10.9375 5.296875 -10.9375 C 6.003906 -10.9375 6.648438 -10.785156 7.234375 -10.484375 C 7.828125 -10.191406 8.289062 -9.796875 8.625 -9.296875 L 8.625 -14.296875 L 11.921875 -14.296875 L 11.921875 0 L 8.625 0 L 8.625 -1.546875 C 8.3125 -1.023438 7.867188 -0.609375 7.296875 -0.296875 C 6.722656 0.00390625 6.054688 0.15625 5.296875 0.15625 C 4.410156 0.15625 3.601562 -0.0703125 2.875 -0.53125 C 2.15625 -0.988281 1.585938 -1.640625 1.171875 -2.484375 C 0.753906 -3.328125 0.546875 -4.300781 0.546875 -5.40625 Z M 8.625 -5.390625 C 8.625 -6.210938 8.394531 -6.863281 7.9375 -7.34375 C 7.476562 -7.820312 6.921875 -8.0625 6.265625 -8.0625 C 5.609375 -8.0625 5.050781 -7.828125 4.59375 -7.359375 C 4.132812 -6.890625 3.90625 -6.238281 3.90625 -5.40625 C 3.90625 -4.582031 4.132812 -3.925781 4.59375 -3.4375 C 5.050781 -2.957031 5.609375 -2.71875 6.265625 -2.71875 C 6.921875 -2.71875 7.476562 -2.957031 7.9375 -3.4375 C 8.394531 -3.914062 8.625 -4.566406 8.625 -5.390625 Z M 8.625 -5.390625 "/></g></g></g></svg>